<svg width="158" height="44" viewBox="0 0 158 44" fill="none" xmlns="http://www.w3.org/2000/svg">
<path d="M0.072 35L11.592 9.8H14.22L25.74 35H22.932L12.348 11.348H13.428L2.844 35H0.072ZM4.608 28.268L5.4 26.108H20.052L20.844 28.268H4.608ZM29.9087 35V9.8H32.5727V35H29.9087ZM40.772 35V9.8H50.204C52.34 9.8 54.176 10.148 55.712 10.844C57.248 11.516 58.424 12.5 59.24 13.796C60.08 15.068 60.5 16.616 60.5 18.44C60.5 20.216 60.08 21.752 59.24 23.048C58.424 24.32 57.248 25.304 55.712 26C54.176 26.672 52.34 27.008 50.204 27.008H42.248L43.436 25.784V35H40.772ZM57.98 35L51.5 25.856H54.38L60.896 35H57.98ZM43.436 26L42.248 24.74H50.132C52.652 24.74 54.56 24.188 55.856 23.084C57.176 21.98 57.836 20.432 57.836 18.44C57.836 16.424 57.176 14.864 55.856 13.76C54.56 12.656 52.652 12.104 50.132 12.104H42.248L43.436 10.844V26Z" fill="white"/>
<path d="M82.716 15.168C82.1467 15.168 81.6707 15 81.288 14.664C80.9147 14.3187 80.728 13.8427 80.728 13.236C80.728 12.4893 81.0593 11.92 81.722 11.528C82.394 11.1267 83.4533 10.8467 84.9 10.688C84.9 10.3987 84.858 10.1233 84.774 9.862C84.6993 9.60067 84.5593 9.39067 84.354 9.232C84.158 9.064 83.8733 8.98 83.5 8.98C83.108 8.98 82.7393 9.05467 82.394 9.204C82.0487 9.35333 81.7407 9.52133 81.47 9.708L81.022 8.91C81.3393 8.70467 81.7267 8.50867 82.184 8.322C82.6507 8.126 83.1547 8.028 83.696 8.028C84.5267 8.028 85.1287 8.28467 85.502 8.798C85.8753 9.302 86.062 9.97867 86.062 10.828V15H85.11L85.012 14.188H84.97C84.6527 14.4493 84.3027 14.678 83.92 14.874C83.5467 15.07 83.1453 15.168 82.716 15.168ZM83.052 14.244C83.3787 14.244 83.6867 14.1647 83.976 14.006C84.2653 13.8473 84.5733 13.6233 84.9 13.334V11.444C83.7707 11.584 82.9773 11.794 82.52 12.074C82.072 12.354 81.848 12.7133 81.848 13.152C81.848 13.5347 81.9647 13.8147 82.198 13.992C82.4313 14.16 82.716 14.244 83.052 14.244ZM90.8907 15.168C90.2934 15.168 89.752 15.028 89.2667 14.748C88.7814 14.468 88.3987 14.062 88.1187 13.53C87.8387 12.998 87.6987 12.3587 87.6987 11.612C87.6987 10.8467 87.848 10.198 88.1467 9.666C88.4547 9.134 88.856 8.728 89.3507 8.448C89.8547 8.168 90.396 8.028 90.9747 8.028C91.4227 8.028 91.8054 8.10733 92.1227 8.266C92.4494 8.42467 92.7294 8.61133 92.9627 8.826L92.3747 9.582C92.1787 9.40467 91.9687 9.26 91.7447 9.148C91.53 9.036 91.2874 8.98 91.0167 8.98C90.606 8.98 90.2374 9.092 89.9107 9.316C89.5934 9.53067 89.3414 9.83867 89.1547 10.24C88.9774 10.632 88.8887 11.0893 88.8887 11.612C88.8887 12.3867 89.08 13.0167 89.4627 13.502C89.8547 13.978 90.3634 14.216 90.9887 14.216C91.306 14.216 91.6 14.1507 91.8707 14.02C92.1414 13.88 92.3794 13.7167 92.5847 13.53L93.0887 14.3C92.7807 14.5707 92.44 14.7853 92.0667 14.944C91.6934 15.0933 91.3014 15.168 90.8907 15.168ZM97.0447 15.168C96.438 15.168 95.8873 15.028 95.3927 14.748C94.898 14.4587 94.506 14.048 94.2167 13.516C93.9273 12.984 93.7827 12.3493 93.7827 11.612C93.7827 10.8653 93.9273 10.226 94.2167 9.694C94.5153 9.162 94.898 8.75133 95.3647 8.462C95.8313 8.17267 96.3213 8.028 96.8347 8.028C97.7027 8.028 98.37 8.31733 98.8367 8.896C99.3127 9.47467 99.5507 10.2493 99.5507 11.22C99.5507 11.3413 99.546 11.4627 99.5367 11.584C99.5367 11.696 99.5273 11.794 99.5087 11.878H94.9167C94.9633 12.5967 95.1873 13.1707 95.5887 13.6C95.9993 14.0293 96.5313 14.244 97.1847 14.244C97.5113 14.244 97.81 14.1973 98.0807 14.104C98.3607 14.0013 98.6267 13.8707 98.8787 13.712L99.2847 14.468C98.9953 14.6547 98.664 14.818 98.2907 14.958C97.9267 15.098 97.5113 15.168 97.0447 15.168ZM94.9027 11.052H98.5427C98.5427 10.3613 98.3933 9.83867 98.0947 9.484C97.8053 9.12 97.3947 8.938 96.8627 8.938C96.3867 8.938 95.9573 9.12467 95.5747 9.498C95.2013 9.862 94.9773 10.38 94.9027 11.052ZM101.232 15V8.196H102.184L102.282 9.428H102.324C102.557 8.99867 102.842 8.658 103.178 8.406C103.514 8.154 103.873 8.028 104.256 8.028C104.527 8.028 104.769 8.07467 104.984 8.168L104.76 9.176C104.648 9.13867 104.545 9.11067 104.452 9.092C104.359 9.07333 104.242 9.064 104.102 9.064C103.813 9.064 103.509 9.18067 103.192 9.414C102.884 9.64733 102.613 10.0533 102.38 10.632V15H101.232ZM107.911 15L105.461 8.196H106.651L107.939 12.06C108.042 12.396 108.144 12.732 108.247 13.068C108.359 13.404 108.466 13.7353 108.569 14.062H108.625C108.728 13.7353 108.83 13.404 108.933 13.068C109.045 12.732 109.148 12.396 109.241 12.06L110.529 8.196H111.663L109.255 15H107.911ZM115.567 15.168C115.017 15.168 114.499 15.028 114.013 14.748C113.537 14.468 113.15 14.062 112.851 13.53C112.562 12.998 112.417 12.3587 112.417 11.612C112.417 10.8467 112.562 10.198 112.851 9.666C113.15 9.134 113.537 8.728 114.013 8.448C114.499 8.168 115.017 8.028 115.567 8.028C116.127 8.028 116.645 8.168 117.121 8.448C117.597 8.728 117.98 9.134 118.269 9.666C118.568 10.198 118.717 10.8467 118.717 11.612C118.717 12.3587 118.568 12.998 118.269 13.53C117.98 14.062 117.597 14.468 117.121 14.748C116.645 15.028 116.127 15.168 115.567 15.168ZM115.567 14.216C116.155 14.216 116.627 13.978 116.981 13.502C117.345 13.0167 117.527 12.3867 117.527 11.612C117.527 10.828 117.345 10.1933 116.981 9.708C116.627 9.22267 116.155 8.98 115.567 8.98C114.989 8.98 114.517 9.22267 114.153 9.708C113.789 10.1933 113.607 10.828 113.607 11.612C113.607 12.3867 113.789 13.0167 114.153 13.502C114.517 13.978 114.989 14.216 115.567 14.216ZM81.148 27V20.196H82.296V27H81.148ZM81.736 18.796C81.512 18.796 81.3253 18.7307 81.176 18.6C81.036 18.46 80.966 18.2733 80.966 18.04C80.966 17.816 81.036 17.634 81.176 17.494C81.3253 17.354 81.512 17.284 81.736 17.284C81.96 17.284 82.142 17.354 82.282 17.494C82.4313 17.634 82.506 17.816 82.506 18.04C82.506 18.2733 82.4313 18.46 82.282 18.6C82.142 18.7307 81.96 18.796 81.736 18.796ZM84.5933 27V20.196H85.5453L85.6433 21.176H85.6853C86.012 20.8493 86.3573 20.5787 86.7213 20.364C87.0853 20.14 87.5006 20.028 87.9673 20.028C88.686 20.028 89.2086 20.2567 89.5353 20.714C89.8713 21.162 90.0393 21.82 90.0393 22.688V27H88.8913V22.842C88.8913 22.2073 88.7886 21.7453 88.5833 21.456C88.378 21.1667 88.0513 21.022 87.6033 21.022C87.258 21.022 86.9453 21.1107 86.6653 21.288C86.3946 21.4653 86.0866 21.7267 85.7413 22.072V27H84.5933ZM94.3916 27.168C93.6636 27.168 93.1549 26.958 92.8656 26.538C92.5856 26.118 92.4456 25.572 92.4456 24.9V21.134H91.4376V20.266L92.5016 20.196L92.6416 18.292H93.6076V20.196H95.4416V21.134H93.6076V24.914C93.6076 25.334 93.6822 25.6607 93.8316 25.894C93.9902 26.118 94.2656 26.23 94.6576 26.23C94.7789 26.23 94.9096 26.2113 95.0496 26.174C95.1896 26.1273 95.3156 26.0853 95.4276 26.048L95.6516 26.916C95.4649 26.9813 95.2596 27.0373 95.0356 27.084C94.8209 27.14 94.6062 27.168 94.3916 27.168ZM99.5466 27.168C98.94 27.168 98.3893 27.028 97.8946 26.748C97.4 26.4587 97.008 26.048 96.7186 25.516C96.4293 24.984 96.2846 24.3493 96.2846 23.612C96.2846 22.8653 96.4293 22.226 96.7186 21.694C97.0173 21.162 97.4 20.7513 97.8666 20.462C98.3333 20.1727 98.8233 20.028 99.3366 20.028C100.205 20.028 100.872 20.3173 101.339 20.896C101.815 21.4747 102.053 22.2493 102.053 23.22C102.053 23.3413 102.048 23.4627 102.039 23.584C102.039 23.696 102.029 23.794 102.011 23.878H97.4186C97.4653 24.5967 97.6893 25.1707 98.0906 25.6C98.5013 26.0293 99.0333 26.244 99.6866 26.244C100.013 26.244 100.312 26.1973 100.583 26.104C100.863 26.0013 101.129 25.8707 101.381 25.712L101.787 26.468C101.497 26.6547 101.166 26.818 100.793 26.958C100.429 27.098 100.013 27.168 99.5466 27.168ZM97.4046 23.052H101.045C101.045 22.3613 100.895 21.8387 100.597 21.484C100.307 21.12 99.8966 20.938 99.3646 20.938C98.8886 20.938 98.4593 21.1247 98.0766 21.498C97.7033 21.862 97.4793 22.38 97.4046 23.052ZM103.734 27V20.196H104.686L104.784 21.428H104.826C105.059 20.9987 105.344 20.658 105.68 20.406C106.016 20.154 106.375 20.028 106.758 20.028C107.029 20.028 107.271 20.0747 107.486 20.168L107.262 21.176C107.15 21.1387 107.047 21.1107 106.954 21.092C106.861 21.0733 106.744 21.064 106.604 21.064C106.315 21.064 106.011 21.1807 105.694 21.414C105.386 21.6473 105.115 22.0533 104.882 22.632V27H103.734ZM108.587 27V20.196H109.539L109.637 21.176H109.679C110.006 20.8493 110.351 20.5787 110.715 20.364C111.079 20.14 111.495 20.028 111.961 20.028C112.68 20.028 113.203 20.2567 113.529 20.714C113.865 21.162 114.033 21.82 114.033 22.688V27H112.885V22.842C112.885 22.2073 112.783 21.7453 112.577 21.456C112.372 21.1667 112.045 21.022 111.597 21.022C111.252 21.022 110.939 21.1107 110.659 21.288C110.389 21.4653 110.081 21.7267 109.735 22.072V27H108.587ZM117.812 27.168C117.242 27.168 116.766 27 116.384 26.664C116.01 26.3187 115.824 25.8427 115.824 25.236C115.824 24.4893 116.155 23.92 116.818 23.528C117.49 23.1267 118.549 22.8467 119.996 22.688C119.996 22.3987 119.954 22.1233 119.87 21.862C119.795 21.6007 119.655 21.3907 119.45 21.232C119.254 21.064 118.969 20.98 118.596 20.98C118.204 20.98 117.835 21.0547 117.49 21.204C117.144 21.3533 116.836 21.5213 116.566 21.708L116.118 20.91C116.435 20.7047 116.822 20.5087 117.28 20.322C117.746 20.126 118.25 20.028 118.792 20.028C119.622 20.028 120.224 20.2847 120.598 20.798C120.971 21.302 121.158 21.9787 121.158 22.828V27H120.206L120.108 26.188H120.066C119.748 26.4493 119.398 26.678 119.016 26.874C118.642 27.07 118.241 27.168 117.812 27.168ZM118.148 26.244C118.474 26.244 118.782 26.1647 119.072 26.006C119.361 25.8473 119.669 25.6233 119.996 25.334V23.444C118.866 23.584 118.073 23.794 117.616 24.074C117.168 24.354 116.944 24.7133 116.944 25.152C116.944 25.5347 117.06 25.8147 117.294 25.992C117.527 26.16 117.812 26.244 118.148 26.244ZM125.986 27.168C125.389 27.168 124.848 27.028 124.362 26.748C123.877 26.468 123.494 26.062 123.214 25.53C122.934 24.998 122.794 24.3587 122.794 23.612C122.794 22.8467 122.944 22.198 123.242 21.666C123.55 21.134 123.952 20.728 124.446 20.448C124.95 20.168 125.492 20.028 126.07 20.028C126.518 20.028 126.901 20.1073 127.218 20.266C127.545 20.4247 127.825 20.6113 128.058 20.826L127.47 21.582C127.274 21.4047 127.064 21.26 126.84 21.148C126.626 21.036 126.383 20.98 126.112 20.98C125.702 20.98 125.333 21.092 125.006 21.316C124.689 21.5307 124.437 21.8387 124.25 22.24C124.073 22.632 123.984 23.0893 123.984 23.612C123.984 24.3867 124.176 25.0167 124.558 25.502C124.95 25.978 125.459 26.216 126.084 26.216C126.402 26.216 126.696 26.1507 126.966 26.02C127.237 25.88 127.475 25.7167 127.68 25.53L128.184 26.3C127.876 26.5707 127.536 26.7853 127.162 26.944C126.789 27.0933 126.397 27.168 125.986 27.168ZM129.683 27V20.196H130.831V27H129.683ZM130.271 18.796C130.047 18.796 129.86 18.7307 129.711 18.6C129.571 18.46 129.501 18.2733 129.501 18.04C129.501 17.816 129.571 17.634 129.711 17.494C129.86 17.354 130.047 17.284 130.271 17.284C130.495 17.284 130.677 17.354 130.817 17.494C130.966 17.634 131.041 17.816 131.041 18.04C131.041 18.2733 130.966 18.46 130.817 18.6C130.677 18.7307 130.495 18.796 130.271 18.796ZM135.774 27.168C135.224 27.168 134.706 27.028 134.22 26.748C133.744 26.468 133.357 26.062 133.058 25.53C132.769 24.998 132.624 24.3587 132.624 23.612C132.624 22.8467 132.769 22.198 133.058 21.666C133.357 21.134 133.744 20.728 134.22 20.448C134.706 20.168 135.224 20.028 135.774 20.028C136.334 20.028 136.852 20.168 137.328 20.448C137.804 20.728 138.187 21.134 138.476 21.666C138.775 22.198 138.924 22.8467 138.924 23.612C138.924 24.3587 138.775 24.998 138.476 25.53C138.187 26.062 137.804 26.468 137.328 26.748C136.852 27.028 136.334 27.168 135.774 27.168ZM135.774 26.216C136.362 26.216 136.834 25.978 137.188 25.502C137.552 25.0167 137.734 24.3867 137.734 23.612C137.734 22.828 137.552 22.1933 137.188 21.708C136.834 21.2227 136.362 20.98 135.774 20.98C135.196 20.98 134.724 21.2227 134.36 21.708C133.996 22.1933 133.814 22.828 133.814 23.612C133.814 24.3867 133.996 25.0167 134.36 25.502C134.724 25.978 135.196 26.216 135.774 26.216ZM140.716 27V20.196H141.668L141.766 21.176H141.808C142.135 20.8493 142.48 20.5787 142.844 20.364C143.208 20.14 143.624 20.028 144.09 20.028C144.809 20.028 145.332 20.2567 145.658 20.714C145.994 21.162 146.162 21.82 146.162 22.688V27H145.014V22.842C145.014 22.2073 144.912 21.7453 144.706 21.456C144.501 21.1667 144.174 21.022 143.726 21.022C143.381 21.022 143.068 21.1107 142.788 21.288C142.518 21.4653 142.21 21.7267 141.864 22.072V27H140.716ZM149.941 27.168C149.371 27.168 148.895 27 148.513 26.664C148.139 26.3187 147.953 25.8427 147.953 25.236C147.953 24.4893 148.284 23.92 148.947 23.528C149.619 23.1267 150.678 22.8467 152.125 22.688C152.125 22.3987 152.083 22.1233 151.999 21.862C151.924 21.6007 151.784 21.3907 151.579 21.232C151.383 21.064 151.098 20.98 150.725 20.98C150.333 20.98 149.964 21.0547 149.619 21.204C149.273 21.3533 148.965 21.5213 148.695 21.708L148.247 20.91C148.564 20.7047 148.951 20.5087 149.409 20.322C149.875 20.126 150.379 20.028 150.921 20.028C151.751 20.028 152.353 20.2847 152.727 20.798C153.1 21.302 153.287 21.9787 153.287 22.828V27H152.335L152.237 26.188H152.195C151.877 26.4493 151.527 26.678 151.145 26.874C150.771 27.07 150.37 27.168 149.941 27.168ZM150.277 26.244C150.603 26.244 150.911 26.1647 151.201 26.006C151.49 25.8473 151.798 25.6233 152.125 25.334V23.444C150.995 23.584 150.202 23.794 149.745 24.074C149.297 24.354 149.073 24.7133 149.073 25.152C149.073 25.5347 149.189 25.8147 149.423 25.992C149.656 26.16 149.941 26.244 150.277 26.244ZM156.645 27.168C156.216 27.168 155.903 27.0373 155.707 26.776C155.521 26.5053 155.427 26.1227 155.427 25.628V17.032H156.575V25.712C156.575 25.8893 156.608 26.02 156.673 26.104C156.739 26.1787 156.813 26.216 156.897 26.216C156.935 26.216 156.967 26.216 156.995 26.216C157.033 26.2067 157.084 26.1973 157.149 26.188L157.303 27.056C157.229 27.0933 157.14 27.1213 157.037 27.14C156.935 27.1587 156.804 27.168 156.645 27.168ZM83.472 39.168C82.6227 39.168 81.9413 38.86 81.428 38.244C80.9147 37.6187 80.658 36.7413 80.658 35.612C80.658 34.8747 80.7933 34.24 81.064 33.708C81.344 33.1667 81.708 32.7513 82.156 32.462C82.6133 32.1727 83.0987 32.028 83.612 32.028C84.004 32.028 84.3447 32.098 84.634 32.238C84.9233 32.378 85.2173 32.5693 85.516 32.812L85.46 31.65V29.032H86.622V39H85.67L85.572 38.202H85.53C85.2687 38.4633 84.9607 38.692 84.606 38.888C84.2513 39.0747 83.8733 39.168 83.472 39.168ZM83.724 38.202C84.3213 38.202 84.9 37.8893 85.46 37.264V33.708C85.1707 33.4467 84.8907 33.2647 84.62 33.162C84.3587 33.05 84.088 32.994 83.808 32.994C83.444 32.994 83.1127 33.106 82.814 33.33C82.5247 33.5447 82.2913 33.848 82.114 34.24C81.9367 34.6227 81.848 35.0753 81.848 35.598C81.848 36.41 82.0113 37.0493 82.338 37.516C82.6647 37.9733 83.1267 38.202 83.724 38.202ZM91.6716 39.168C91.065 39.168 90.5143 39.028 90.0196 38.748C89.525 38.4587 89.133 38.048 88.8436 37.516C88.5543 36.984 88.4096 36.3493 88.4096 35.612C88.4096 34.8653 88.5543 34.226 88.8436 33.694C89.1423 33.162 89.525 32.7513 89.9916 32.462C90.4583 32.1727 90.9483 32.028 91.4616 32.028C92.3296 32.028 92.997 32.3173 93.4636 32.896C93.9396 33.4747 94.1776 34.2493 94.1776 35.22C94.1776 35.3413 94.173 35.4627 94.1636 35.584C94.1636 35.696 94.1543 35.794 94.1356 35.878H89.5436C89.5903 36.5967 89.8143 37.1707 90.2156 37.6C90.6263 38.0293 91.1583 38.244 91.8116 38.244C92.1383 38.244 92.437 38.1973 92.7076 38.104C92.9876 38.0013 93.2536 37.8707 93.5056 37.712L93.9116 38.468C93.6223 38.6547 93.291 38.818 92.9176 38.958C92.5536 39.098 92.1383 39.168 91.6716 39.168ZM89.5296 35.052H93.1696C93.1696 34.3613 93.0203 33.8387 92.7216 33.484C92.4323 33.12 92.0216 32.938 91.4896 32.938C91.0136 32.938 90.5843 33.1247 90.2016 33.498C89.8283 33.862 89.6043 34.38 89.5296 35.052ZM98.6617 39V32.196H99.6137L99.7117 33.428H99.7537C99.987 32.9987 100.272 32.658 100.608 32.406C100.944 32.154 101.303 32.028 101.686 32.028C101.956 32.028 102.199 32.0747 102.414 32.168L102.19 33.176C102.078 33.1387 101.975 33.1107 101.882 33.092C101.788 33.0733 101.672 33.064 101.532 33.064C101.242 33.064 100.939 33.1807 100.622 33.414C100.314 33.6473 100.043 34.0533 99.8097 34.632V39H98.6617ZM106.136 39.168C105.53 39.168 104.979 39.028 104.484 38.748C103.99 38.4587 103.598 38.048 103.308 37.516C103.019 36.984 102.874 36.3493 102.874 35.612C102.874 34.8653 103.019 34.226 103.308 33.694C103.607 33.162 103.99 32.7513 104.456 32.462C104.923 32.1727 105.413 32.028 105.926 32.028C106.794 32.028 107.462 32.3173 107.928 32.896C108.404 33.4747 108.642 34.2493 108.642 35.22C108.642 35.3413 108.638 35.4627 108.628 35.584C108.628 35.696 108.619 35.794 108.6 35.878H104.008C104.055 36.5967 104.279 37.1707 104.68 37.6C105.091 38.0293 105.623 38.244 106.276 38.244C106.603 38.244 106.902 38.1973 107.172 38.104C107.452 38.0013 107.718 37.8707 107.97 37.712L108.376 38.468C108.087 38.6547 107.756 38.818 107.382 38.958C107.018 39.098 106.603 39.168 106.136 39.168ZM103.994 35.052H107.634C107.634 34.3613 107.485 33.8387 107.186 33.484C106.897 33.12 106.486 32.938 105.954 32.938C105.478 32.938 105.049 33.1247 104.666 33.498C104.293 33.862 104.069 34.38 103.994 35.052ZM112.483 42.136C111.652 42.136 110.976 41.9773 110.453 41.66C109.93 41.3427 109.669 40.89 109.669 40.302C109.669 40.0127 109.758 39.7327 109.935 39.462C110.112 39.2007 110.355 38.9673 110.663 38.762V38.706C110.495 38.6033 110.35 38.4587 110.229 38.272C110.117 38.0853 110.061 37.8613 110.061 37.6C110.061 37.3107 110.14 37.0587 110.299 36.844C110.458 36.6293 110.626 36.4613 110.803 36.34V36.284C110.579 36.0973 110.374 35.8453 110.187 35.528C110.01 35.2107 109.921 34.8513 109.921 34.45C109.921 33.9553 110.038 33.526 110.271 33.162C110.504 32.798 110.817 32.518 111.209 32.322C111.601 32.126 112.026 32.028 112.483 32.028C112.67 32.028 112.847 32.0467 113.015 32.084C113.183 32.112 113.328 32.1493 113.449 32.196H115.815V33.078H114.415C114.574 33.2273 114.704 33.428 114.807 33.68C114.919 33.9227 114.975 34.1887 114.975 34.478C114.975 34.9633 114.863 35.3833 114.639 35.738C114.415 36.0927 114.116 36.368 113.743 36.564C113.37 36.7507 112.95 36.844 112.483 36.844C112.119 36.844 111.778 36.7647 111.461 36.606C111.34 36.7087 111.237 36.8253 111.153 36.956C111.069 37.0773 111.027 37.2313 111.027 37.418C111.027 37.6327 111.111 37.81 111.279 37.95C111.456 38.09 111.774 38.16 112.231 38.16H113.547C114.34 38.16 114.933 38.2907 115.325 38.552C115.726 38.804 115.927 39.2147 115.927 39.784C115.927 40.204 115.787 40.5913 115.507 40.946C115.227 41.3007 114.83 41.5853 114.317 41.8C113.804 42.024 113.192 42.136 112.483 42.136ZM112.483 36.074C112.875 36.074 113.211 35.9293 113.491 35.64C113.78 35.3413 113.925 34.9447 113.925 34.45C113.925 33.9553 113.785 33.568 113.505 33.288C113.225 33.008 112.884 32.868 112.483 32.868C112.082 32.868 111.741 33.008 111.461 33.288C111.181 33.568 111.041 33.9553 111.041 34.45C111.041 34.9447 111.181 35.3413 111.461 35.64C111.75 35.9293 112.091 36.074 112.483 36.074ZM112.651 41.338C113.304 41.338 113.827 41.1933 114.219 40.904C114.611 40.624 114.807 40.3067 114.807 39.952C114.807 39.6347 114.686 39.4153 114.443 39.294C114.21 39.1727 113.874 39.112 113.435 39.112H112.259C112.128 39.112 111.984 39.1027 111.825 39.084C111.676 39.0653 111.526 39.0373 111.377 39C111.134 39.1773 110.957 39.364 110.845 39.56C110.733 39.756 110.677 39.952 110.677 40.148C110.677 40.512 110.85 40.8013 111.195 41.016C111.55 41.2307 112.035 41.338 112.651 41.338ZM119.808 39.168C119.202 39.168 118.651 39.028 118.156 38.748C117.662 38.4587 117.27 38.048 116.98 37.516C116.691 36.984 116.546 36.3493 116.546 35.612C116.546 34.8653 116.691 34.226 116.98 33.694C117.279 33.162 117.662 32.7513 118.128 32.462C118.595 32.1727 119.085 32.028 119.598 32.028C120.466 32.028 121.134 32.3173 121.6 32.896C122.076 33.4747 122.314 34.2493 122.314 35.22C122.314 35.3413 122.31 35.4627 122.3 35.584C122.3 35.696 122.291 35.794 122.272 35.878H117.68C117.727 36.5967 117.951 37.1707 118.352 37.6C118.763 38.0293 119.295 38.244 119.948 38.244C120.275 38.244 120.574 38.1973 120.844 38.104C121.124 38.0013 121.39 37.8707 121.642 37.712L122.048 38.468C121.759 38.6547 121.428 38.818 121.054 38.958C120.69 39.098 120.275 39.168 119.808 39.168ZM117.666 35.052H121.306C121.306 34.3613 121.157 33.8387 120.858 33.484C120.569 33.12 120.158 32.938 119.626 32.938C119.15 32.938 118.721 33.1247 118.338 33.498C117.965 33.862 117.741 34.38 117.666 35.052ZM122.948 39L125.174 35.444L123.116 32.196H124.362L125.272 33.694C125.375 33.8713 125.482 34.058 125.594 34.254C125.706 34.45 125.823 34.6413 125.944 34.828H126C126.103 34.6413 126.205 34.45 126.308 34.254C126.411 34.058 126.513 33.8713 126.616 33.694L127.442 32.196H128.646L126.588 35.57L128.8 39H127.554L126.56 37.418C126.439 37.2127 126.317 37.0073 126.196 36.802C126.075 36.5967 125.949 36.396 125.818 36.2H125.762C125.641 36.396 125.524 36.5967 125.412 36.802C125.3 36.998 125.188 37.2033 125.076 37.418L124.152 39H122.948Z" fill="white"/>
<rect x="71" y="10" width="1" height="24" rx="0.5" fill="#FFEF60"/>
</svg>
